<svg viewBox="0 0 149 128" fill="none" xmlns="http://www.w3.org/2000/svg"><path d="M130.822 127.893h7.858v-5.013h-4.726l-3.815 2.268c-1.31.716-.797 2.745.683 2.745z" fill="#2B435E"></path><path d="M87.383 38.458c-.963-4.424-4.869-7.6-9.398-7.6h-4.53l1.586 3.97h-1.869l1.36 1.418-4.247 6.693v51.613h-.51V42.94l-3.85-6.126c-1.811 1.702-4.416 3.233-8.152 4.084-4.586 1.077-7.643-.17-9.229-2.326l-3.68 4.878-5.435-12.138-3.906 2.666 4.472 17.13c.793 2.948 4.247 4.253 6.738 2.551l7.416-5.104-.566 45.942H84.44l.68-35.733 4.755 14.01 4.246-1.645-6.737-32.67z" fill="#fff"></path><path d="M57.886 40.897c3.737-.851 6.341-2.44 8.153-4.084l-.34-.567 1.359-1.418h-1.869l1.586-3.97h-7.53c-3 0-5.832 1.418-7.643 3.8l-3 3.97c1.64 2.042 4.698 3.29 9.284 2.269z" fill="#fff"></path><path d="M71.587 12.595h-2.321c-1.925 0-3.68.85-4.869 2.155l-.057.056a4.54 4.54 0 00-.849 1.192c-4.756 6.522-5.605 8.904-12.059 12.364-4.076 2.212-4.982 7.09-2.718 10.21l3.001-3.97a9.621 9.621 0 017.643-3.8h8.323v-7.147a2.394 2.394 0 01-2.378-2.383c0-.794.396-1.531 1.019-1.928a2.3 2.3 0 011.359-.454l2.83-3.687h.68c2.718 0 5.265 1.362 6.737 3.687-.056-3.46-2.83-6.296-6.34-6.296z" fill="#2B435E"></path><path d="M71.134 15.204h-.679l-2.83 3.686a2.3 2.3 0 00-1.36.454c-.622.454-1.019 1.134-1.019 1.928a2.394 2.394 0 002.378 2.383V30.8h5.152v-4.367h.85a4.305 4.305 0 004.302-4.31V18.89c-1.528-2.269-4.076-3.687-6.794-3.687z" fill="#F799A7"></path><path d="M69.889 30.801h-2.322l.68 3.346 1.642 7.941.283 1.191.226-1.191 2.321-11.287h-2.83z" fill="#F0655F"></path><path d="M75.097 34.771l-1.585-3.97h-.792l-2.322 11.287-.226 1.191-.283-1.191-1.642-7.94-.68-3.347h-.792l-1.585 3.97h1.868l-1.359 1.475.34.51 3.85 6.126v51.67h.51v-51.67l4.246-6.636-1.36-1.475h1.813z" fill="#F3F3F4"></path><path d="M51.715 127.449h6.85v-4.764H54.83l-3.794 2.155c-1.302.68-.792 2.609.68 2.609zM74.758 127.449h6.794v-4.764h-3.737l-3.793 2.155c-1.246.68-.736 2.609.736 2.609z" fill="#2B435E"></path><path d="M39.543 31.368v-4.027l-2.944-2.495-3.001 2.495 2.038 6.693 3.907-2.666zM94.29 71.128l2.604 2.495-1.302 2.78-3.567.964-1.981-4.595 4.246-1.644z" fill="#F799A7"></path><path d="M64.454 74.36h-4.19a1.705 1.705 0 01-1.699-1.701V66.76h7.644v5.899c-.057.907-.793 1.701-1.755 1.701zM80.08 74.36h-4.19a1.705 1.705 0 01-1.699-1.701V66.76h7.644v5.899c-.057.907-.793 1.701-1.755 1.701z" fill="#F3F3F4"></path><path d="M54.829 122.685h3.68l5.152-28.133h-7.7l-1.132 28.133zM74.814 94.552l3.058 28.133h3.68l.962-28.133h-7.7z" fill="#5EB6FF"></path><path d="M148.118 52.902l-2.491-13.953c-.85-4.651-4.813-7.997-9.512-7.997h-6.85l1.585 3.97h-1.868l1.358 1.418-4.246 6.693v51.613h-.509V43.033l-4.247-6.693 1.359-1.418h-1.868l1.585-3.97h-8.719c-3.793 0-7.303 2.268-8.832 5.728l-1.472 3.347h4.133l.566 54.62h35.272l.396-34.712c2.944-.908 4.926-3.744 4.36-7.033z" fill="#fff"></path><path d="M123.32 30.952l2.321 11.287.227 1.19.283-1.19 2.321-11.287h-5.152z" fill="#31679E"></path><path d="M130.85 34.922l-1.585-3.97h-.793l-2.321 11.287-.283 1.19-.227-1.19-2.321-11.287h-.793l-1.585 3.97h1.812l-1.359 1.475 4.246 6.636v51.67h.51v-51.67l4.189-6.636-1.358-1.475h1.868z" fill="#F3F3F4"></path><path d="M111.522 127.893h7.858v-5.013h-4.727l-3.815 2.268c-1.309.716-.797 2.745.684 2.745zM133.802 19.025c0-3.687-3-6.693-6.68-6.693h-2.378c-3.454 0-6.285 2.836-6.285 6.296l5.266-2.61v2.61h5.039a2.394 2.394 0 012.377 2.382 2.394 2.394 0 01-2.377 2.382v2.155c2.887-.794 5.038-3.403 5.038-6.522z" fill="#2B435E"></path><path d="M128.764 18.571h-5.039v-2.609l-5.266 2.61v3.232a4.305 4.305 0 004.303 4.31h.85v4.368h5.152v-7.147a2.394 2.394 0 002.377-2.382 2.394 2.394 0 00-2.377-2.382z" fill="#F799A7"></path><path d="M123.813 46.93l1.081 1.082-6.645 6.658-1.081-1.083 6.645-6.657z" fill="#70B9E4"></path><path d="M120.809 62.008H104.43l-5.066-22.2h16.323l5.122 22.2z" fill="#2B435E"></path><path d="M127.243 50.911l-2.459-2.51-4.118.856-.572 4.734 6.406.856.743-3.936zM101.509 56.916l1.513-2.786h2.86l1.345 4.37-3.644 2.076-2.074-3.66z" fill="#F799A7"></path><path fill-rule="evenodd" clip-rule="evenodd" d="M123.999 19.756c-.935 0-1.65.705-1.76 1.573h-.66c-.11-.868-.88-1.573-1.814-1.573-.99 0-1.815.814-1.815 1.79 0 .977.825 1.79 1.815 1.79.934 0 1.649-.705 1.814-1.573h.66c.11.868.88 1.574 1.76 1.574.989 0 1.814-.814 1.814-1.79 0-.977-.825-1.791-1.814-1.791zm-4.289 3.092c-.715 0-1.32-.596-1.32-1.302 0-.705.605-1.302 1.32-1.302.714 0 1.319.597 1.319 1.302 0 .706-.55 1.302-1.319 1.302zm2.969-1.302c0 .706.605 1.302 1.32 1.302.714 0 1.319-.596 1.319-1.302 0-.705-.605-1.302-1.319-1.302-.715 0-1.32.597-1.32 1.302z" fill="#2B435E"></path><path d="M119.046 71.38h-5.491a1.887 1.887 0 01-1.869-1.87v-5.73h9.285v5.73c0 1.02-.849 1.87-1.925 1.87zM138.353 71.38h-5.492a1.887 1.887 0 01-1.869-1.87v-5.73h9.285v5.73c0 1.02-.849 1.87-1.924 1.87z" fill="#F3F3F4"></path><path d="M114.722 122.48h4.699l1.812-28.132h-8.606l2.095 28.132zM131.48 94.348l2.378 28.132h4.699l1.529-28.132h-8.606z" fill="#31679E"></path><path d="M30.403 38.216H.736A.75.75 0 010 37.478V.952A.75.75 0 01.736.214h29.667a.75.75 0 01.736.738v36.526c.056.397-.283.738-.736.738z" fill="#E9FBFF"></path><path d="M11.436 13.6v-.114l4.813-1.645v.114L11.436 13.6z" fill="#597D9B"></path><path d="M7.02 16.095c1.36 0 2.492-1.134 2.492-2.495 0-1.361-1.133-2.496-2.492-2.496-1.358 0-2.49 1.135-2.49 2.496s1.132 2.495 2.49 2.495zM8.945 17.343H5.152c-1.359 0-2.491 1.078-2.491 2.326v6.465h1.868v8.849h4.982v-8.848h1.869v-6.466c.056-1.248-1.076-2.326-2.435-2.326z" fill="#3983C4"></path><ellipse cx="22.08" cy="9.856" rx="6.454" ry="6.466" fill="#85B7D6"></ellipse><path d="M22.08 3.39v6.466h6.455A6.457 6.457 0 0022.08 3.39z" fill="#629FCC"></path><path d="M17.268 34.926h-.963c-.226 0-.453-.227-.453-.567v-6.863c0-.284.17-.567.453-.567h.963c.226 0 .453.226.453.567v6.863c0 .34-.17.567-.453.567z" fill="#3983C4"></path><path d="M20.722 34.926h-.963c-.226 0-.453-.227-.453-.567v-5.616c0-.283.17-.567.453-.567h.963c.226 0 .452.227.452.568v5.615c0 .34-.226.567-.452.567z" fill="#629FCC"></path><path d="M24.175 34.926h-.962c-.227 0-.453-.227-.453-.568v-3.46c0-.283.17-.567.453-.567h.962c.227 0 .453.227.453.568v3.46c0 .34-.226.567-.453.567z" fill="#85B7D6"></path><path fill="#6795BA" d="M2.661 3.561h7.587v.624H2.661zM2.661 4.922H7.7v.624H2.661zM2.661 6.283H7.7v.624H2.661zM15.909 18.761h11.833v.794H15.909zM15.909 20.122h7.813v.794h-7.813zM15.909 21.484h7.813v.794h-7.813z"></path><path d="M127.386 55.13l.223-.604 12.067 4.477-.224.604-12.066-4.477zM128.673 50.55h13.582v.716h-13.582z" fill="#F3F3F4"></path></svg>